# Blender v2.63 (sub 10) OBJ File: 'piller.blend'
# www.blender.org
mtllib piller.mtl
o Cube
v 1.000000 0.000000 -1.000000
v 1.000000 0.000000 1.000000
v -1.000000 0.000000 1.000000
v -1.000000 0.000000 -1.000000
v -0.000001 11.000000 0.000001
vn 0.000000 -1.000000 0.000000
vn 0.995893 0.090536 0.000000
vn -0.000000 0.090536 0.995893
vn -0.995893 0.090536 -0.000000
vn 0.000000 0.090536 -0.995893
usemtl Material
s off
f 1//1 2//1 3//1
f 1//2 5//2 2//2
f 2//3 5//3 3//3
f 3//4 5//4 4//4
f 5//5 1//5 4//5
f 4//1 1//1 3//1
